<svg id="Layer_1" data-name="Layer 1" xmlns="http://www.w3.org/2000/svg" width="1620" height="500" viewBox="0 0 1620 500"><defs><style>.cls-1{fill:#fff;}.cls-2{fill:#448aed;}.cls-3{fill:#2b68bd;}.cls-4{fill:#df2639;}</style></defs><path class="cls-1" d="M376.69,421.35l7.92-82.83h10.33l26.17,67.34,26.17-67.34H458.2l7.92,82.83h-9l-6.24-69.15L423,422.43h-4.2l-27-69.27-6.13,68.19Z"/><path class="cls-1" d="M482.33,338.52h46.46v7.8H491.33v27.37h35.29v7.8H491.33v32.05h38.3v7.81h-47.3Z"/><path class="cls-1" d="M544.87,338.52h23.89c25,0,43.45,16,43.45,41.53,0,25-19.2,41.3-43.45,41.3H544.87Zm58,41.41c0-20.89-13.8-33.49-34.33-33.49H553.88v67h14.64C588.33,413.42,602.85,400.22,602.85,379.93Z"/><path class="cls-1" d="M626.62,338.52h9v82.83h-9Z"/><path class="cls-1" d="M691.8,422.79c-24.6,0-41.77-17.17-41.77-42.74s18.49-42.73,42.13-42.73c14.89,0,24.37,6.24,29.65,11.52l-4.56,7.08c-3.72-4.8-13.32-10.56-24.85-10.56-19.44,0-33.13,13.92-33.13,34.45s14.05,34.45,33.13,34.45c11.17,0,19.81-4.08,25.57-10.32l4.56,6.36C717,416.42,707.17,422.79,691.8,422.79Z"/><path class="cls-1" d="M783.27,398.18H745.46l-9.24,23.17h-9.36l34.45-83.07h6.84l34.57,83.07h-10.2Zm-18.84-47.66-15.85,39.73h31.57Z"/><path class="cls-1" d="M812.93,338.52h9V413.3h29.29v8.05H812.93Z"/><path class="cls-1" d="M933.81,408.5c-7.32,8-15.25,14.29-28.45,14.29-14.29,0-24.49-8.41-24.49-22.81,0-13.45,10.56-20.17,22.33-26.41-4.2-5.16-9.61-10.44-9.61-19.21,0-9.6,8-17,19.69-17s19.33,7,19.33,16.8c0,9.13-7.81,15.85-16.81,21,6,7.2,12,14.28,18.13,21.37,2.76-3.12,8-12.73,10-17.41l7.56,3.36c-1.56,3.24-7.92,14.65-12.36,19.81,5.52,6.12,11.16,12.24,16.69,18.48v.61h-11ZM904.4,381.13c-6.6,3.72-14.29,9-14.29,18.25,0,9.48,7.21,16.08,16.81,16.08s18-7.44,21.73-12.6L908.24,379Zm19.68-26.65c0-6.48-4.56-10.2-10.8-10.2s-10.92,3.84-10.92,10.44c0,7,5.4,11.41,8.28,15.13l2.28-1.32C917.48,365.77,924.08,361.56,924.08,354.48Z"/><path class="cls-1" d="M1005.71,346.2H981.59v-7.68h57.14v7.68h-24v75.15h-9Z"/><path class="cls-1" d="M1077.74,383.65l24.61,37.7h-11.17l-22.92-37h-9.85v37h-9V338.52h22.45c14.4,0,25.69,7.08,25.69,22.8C1097.55,373.69,1089.14,381.25,1077.74,383.65Zm-19.33-37.45v30.37h8.77c10.68,0,21.12-2.16,21.12-15.13,0-12.24-9.48-15.24-19.92-15.24Z"/><path class="cls-1" d="M1159.49,398.18h-37.81l-9.25,23.17h-9.36l34.45-83.07h6.84l34.57,83.07h-10.2Zm-18.85-47.66-15.84,39.73h31.57Z"/><path class="cls-1" d="M1189,338.52h9v82.83h-9Z"/><path class="cls-1" d="M1226.11,352.08c0,6,.12,17.65.12,29.17v40.1h-9V338.52h9.36l50.78,68.3v-68.3h8.88v82.83h-8.64Z"/><path class="cls-1" d="M1305.58,338.52h9v82.83h-9Z"/><path class="cls-1" d="M1342.67,352.08c0,6,.12,17.65.12,29.17v40.1h-9V338.52h9.36l50.78,68.3v-68.3h8.88v82.83h-8.64Z"/><path class="cls-1" d="M1461.27,385.93v-7.68h32.66V409.7c-1.44,1.8-11.17,13.09-34.7,13.09-24.36,0-42-17.05-42-42.86,0-25.21,18.25-42.61,41.77-42.61,21,0,30.13,11,33.26,14.4l-6.13,6.12a34.47,34.47,0,0,0-27.13-12.6c-18.12,0-32.53,13.2-32.53,34.69s14.89,34.57,33.37,34.57,25.33-8.16,25.33-8.16V385.93Z"/><path class="cls-1" d="M473.39,106.84a86.68,86.68,0,0,1,32.91,33q12,21.13,12,47.77t-12.16,47.9a87.53,87.53,0,0,1-33,33.16,95.7,95.7,0,0,1-92.47,0,87.39,87.39,0,0,1-33-33.16q-12.17-21.27-12.16-47.9t12.16-47.77a87.64,87.64,0,0,1,33-33A91.66,91.66,0,0,1,426.9,94.93Q452.52,94.93,473.39,106.84Zm-80.68,42.77q-12.68,14-12.68,38,0,23.82,12.68,37.91t34.19,14.08q21.27,0,34.07-14.08t12.81-37.91q0-23.82-12.68-37.91t-34.2-14.09Q405.39,135.65,392.71,149.61Z"/><path class="cls-1" d="M703.78,278.83H660L586.73,167.67V278.83h-43.8V97.75h43.8L660,209.93V97.75h43.8Z"/><path class="cls-1" d="M777.8,132.58v37.91H839v33H777.8v40.21h68.9v35.09H734V97.75H846.7v34.83Z"/><path class="cls-1" d="M1057.36,201.48a43.49,43.49,0,0,1,9.6,27.92q0,23.31-15.49,36.37T1007,278.83H922.76V97.75H1005q27.66,0,42.77,12t15.11,34.32q0,16.39-8.7,27.27a40.16,40.16,0,0,1-22.8,14.22Q1047.76,189.44,1057.36,201.48Zm-90.8-29.71h28.69q22.79,0,22.79-19.47t-23.31-19.46H966.56Zm55.58,51.48q0-9.74-6.4-15.24t-18.19-5.51h-31v40.73h31.25Q1022.14,243.23,1022.14,223.25Z"/><path class="cls-1" d="M1138.94,132.58v37.91h61.21v33h-61.21v40.21h68.9v35.09h-112.7V97.75h112.7v34.83Z"/><path class="cls-1" d="M1350,245.79h-67.88l-11.27,33h-46.1L1291.08,99h50.45l66.34,179.8h-46.62Zm-11.28-33.3-22.53-66.59-22.8,66.59Z"/><path class="cls-1" d="M1534.4,97.75v34.83h-49.18V278.83h-44.06V132.58H1392.5V97.75Z"/><polygon class="cls-2" points="292.73 151.17 226.71 151.17 156.16 151.17 156.16 221.72 156.16 287.74 226.71 287.74 226.71 221.72 292.73 221.72 292.73 151.17"/><rect class="cls-3" x="156.16" y="221.72" width="70.55" height="8.82"/><path class="cls-4" d="M191.43,80.61a35.28,35.28,0,0,0-35.27,35.28v35.28H120.88a35.28,35.28,0,1,0,0,70.55H226.71V115.89A35.28,35.28,0,0,0,191.43,80.61Z"/></svg>